<svg version="1" xmlns="http://www.w3.org/2000/svg" width="257.333" height="257.333" viewBox="0 0 193.000000 193.000000"><path d="M130.7 8.6c-.1.2-1.4.5-2.7.7-1.4.2-4.1 1-6 1.8-1.9.7-3.8 1.2-4.2 1.1-.5-.1-.8.2-.8.6 0 .5-.6.9-1.2 1-.7 0-2.9.5-4.8 1.1-8.5 2.5-15.9 4.1-21 4.6-14 1.4-14.5 1.5-25 4.3-1.9.5-4.6 1.4-6 2-1.4.5-6.5 2.5-11.5 4.3-13.3 4.7-29.7 15.8-43.7 29.2-1 1-2.3 1.5-2.8 1.2-.7-.4-1 23.5-1 65.9V193h34.1c32 0 34-.1 33.5-1.8-.3-.9-.8-4.7-1.1-8.4-.5-5.5-.2-7.6 1.8-12.5 1.3-3.2 2.9-8.1 3.7-10.8 1.8-6.7 2.4-7.2 5.5-4.1 1.4 1.4 2.8 2.6 3.1 2.6.2 0 3.8 2.7 7.9 5.9 6.9 5.5 19.5 13.9 20.2 13.4.1-.1 1.9.5 4 1.3 4 1.7 5.5 2.1 12 3 8.4 1.1 13.9 1.1 18.3-.2 3.6-1.1 4.8-1.1 6.5 0 4.1 2.6 11.2 4.8 16.4 5.1 5.3.3 5.3.3 11.7-5.8 3.5-3.4 6.4-6.6 6.4-7 0-.4 1.1-2.4 2.5-4.4 1.3-2 2.2-4 1.9-4.5-.3-.4-.1-.8.5-.8 1.1 0 2.2-2.9 3.5-8.8.5-2.6-2.1-7-5.3-8.6-1.6-.9-3.1-1.3-3.3-1-.9.8-2.8-2.2-3.2-5.2-1.6-11.6-4.5-20.2-11.4-33.8-4.8-9.2-12-20.8-13.4-21.4-.5-.2-.8-1-.8-1.8 0-.7-.9-1.9-2-2.6-1.1-.7-2-1.7-2-2.1 0-.5-2.1-3.3-4.6-6.2-4-4.7-4.4-5.6-3.4-7.5.6-1.2.9-2.4.6-2.7-.2-.3.3-1.4 1.3-2.4 1.3-1.4 2.4-1.7 4.6-1 2.6.7 3.5.3 7.2-3.3 2.4-2.3 4.3-4.7 4.3-5.4 0-.6.4-1.2 1-1.2 1.3 0 5-8.4 5-11.5 0-3.9-4.4-5.2-16.5-5-12.3.3-11.4.1-12.3 2.5-.7 1.8-1 1.9-2.7.6-1.9-1.4-1.9-1.5-.2-3.3.9-1.1 1.7-2.5 1.7-3.1 0-.7.3-1.2.8-1.2 1.1 0 4.6-9.1 4.8-12.4.3-4.3-3.6-7.7-8.1-7.4-2 .1-3.7.3-3.8.4zm3.1 9.9c-.3.3-.9-.2-1.2-1.2-.6-1.4-.5-1.5.5-.6.7.7 1 1.5.7 1.8zM157 42.1c0 1.4-2.7 1-3.3-.5-.4-1 0-1.2 1.4-.9 1 .3 1.9.9 1.9 1.4zm-67.7 92.2c1.7 1.8 5.5 5.1 8.2 7.2 2.8 2.2 5.2 4.2 5.5 4.5 2.2 2.4 30.9 24.8 31.2 24.4.3-.2 1.3.6 2.4 1.7l1.9 2.2-7.5-.7c-4.1-.4-8.4-.7-9.5-.7-1 0-2.4-.4-3-.8-.5-.5-2.3-1.1-4-1.5-2.9-.7-16.8-9.4-21.5-13.4-1.4-1.2-5.4-4.5-9-7.4-7-5.7-7.1-5.8-4-12.3 1.7-3.6 4-6.5 5.2-6.5.4 0 2.3 1.5 4.1 3.3z"/></svg>